<?xml version="1.0" standalone="yes"?>
<svg width="1241" height="984">
<path style="fill:#ffffff; stroke:none;" d="M0 0L0 984L1241 984L1241 0L0 0z"/>
<path style="fill:#d9d9d9; stroke:none;" d="M959 6.42438C929.466 10.3022 901.496 12.0837 873 22.436C841.138 34.0113 813.525 53.0591 785 70.9498C746.248 95.2543 707.477 119.572 669 144.308C546.938 222.779 423.54 299.224 301 376.947C258.032 404.2 215.128 431.576 172 458.576C130.255 484.709 89.6203 509.611 59.8843 550C-28.7704 670.415 -0.649399 847.879 125 931.645C181.239 969.137 243.791 979.551 310 974.911C358.285 971.526 401.257 946.261 441 921.053C476.628 898.456 512.239 875.812 548 853.424C692.044 763.249 835.49 672.076 979 581.053L1077 519.053C1120.04 491.758 1159.66 464.756 1187.78 421C1256.31 314.361 1242.68 169.663 1150 81.0394C1124.57 56.7244 1094.62 37.8848 1062 24.8002C1031.9 12.7248 991.648 2.1377 959 6.42438z"/>
<path style="fill:#eaa68b; stroke:none;" d="M945 20L945 21L953 21L945 20z"/>
<path style="fill:#f28a61; stroke:none;" d="M922 23L922 24L923 26L926 27L925 30L932 37L931 40L936 43L935 46L946 59L945 62L950 65L949 68L956 75L955 78L960 81L959 84L970 97L969 100L974 103L973 106L980 113L979 116L984 119L983 122L988 125L987 128L994 135L993 138L998 141L997 144L1004 151L1003 154L1008 157L1007 160L1012 163L1011 166L1018 173L1017 176L1022 179L1021 182L1028 189L1027 192L1032 195L1031 198L1036 201L1035 204L1045 217L1031 226L1030 226C1024.05 220.423 1010.31 227.905 1016.61 232.972C1022.99 238.108 1037.41 227.542 1045 228.608C1072.61 232.486 1057.41 261.917 1041 269C1041.96 273.712 1045.71 279.765 1050 282L1049 285L1054 288L1053 291L1060 298L1059 301L1064 304L1063 307L1074 320L1073 323L1078 326L1077 329L1088 342L1087 345L1098 358L1097 361L1102 364L1101 367L1112 380L1111 383L1116 386L1115 389L1122 396L1121 399L1126 402L1125 405L1136 418L1135 421L1140 424L1139 427L1146 434L1145 437L1150 440L1149 443C1157.86 444.253 1166.23 428.363 1170.85 422C1189.21 396.711 1201.68 368.022 1209.85 338C1211.89 330.486 1220.58 308.488 1213 303L1214 300L1209 297L1210 294L1205 291L1206 288L1203 287L1199 281L1200 278L1195 275L1196 272L1191 269L1192 266L1189 265L1190 262L1185 259L1186 256L1181 253L1182 250L1177 247L1178 244L1175 243L1176 240L1171 237L1172 234L1167 231L1168 228L1165 227L1166 224L1161 221L1162 218L1157 215L1158 212L1153 209L1154 206L1151 205L1152 202L1147 199L1148 196L1143 193L1144 190L1141 189L1137 183L1138 180L1133 177L1134 174L1129 171L1130 168L1127 167L1128 164L1123 161L1124 158L1119 155L1120 152L1117 151L1113 145L1114 142L1109 139L1110 136L1105 133L1106 130L1103 129L1104 126L1099 123L1100 120L1095 117L1096 114L1093 113L1089 107L1090 104L1085 101L1086 98L1081 95L1082 92L1079 91L1080 88L1075 85L1076 82L1071 79L1072 76L1067 73L1068 70L1065 69L1066 66L1061 63L1062 60L1057 57L1058 54L1055 53L1056 50L1051 47L1052 44L1047 41L1048 38L1043 35L1044 33C1006.14 16.2379 961.9 19.8508 922 23z"/>
<path style="fill:#e7b19b; stroke:none;" d="M933 21L933 22L938 22L933 21z"/>
<path style="fill:#e6b7a1; stroke:none;" d="M998 22L998 23L1002 23L998 22z"/>
<path style="fill:#ec866b; stroke:none;" d="M851 46C853.279 50.8832 856.883 54.2603 862 56L861 59L866 62L865 65L870 68L869 71L872 72L871 75L876 78L875 81L880 84L879 87L883 93L886 94L885 97L890 100L889 103L894 106L893 109L896 110L895 113L900 116L899 119L904 122L903 125L907 131L910 132L909 135L914 138L913 141L918 144L917 147L920 148L919 151L924 154L923 157L928 160L927 163L931 169L934 170L933 173L938 176L937 179L942 182L941 185L944 186L943 189L948 192L947 195L952 198L951 201L956 204L955 207L958 208L957 211L962 214L961 217L966 220L965 223L969 229L972 230L971 233L976 236L975 239L992 251C987.124 252.554 983.011 256.957 978 257.807C973.832 258.514 970.153 256.023 966.059 258.318C963.192 259.924 960.047 265.356 964.318 267.393C972.54 271.314 984.634 260.618 994 262.907C1020.92 269.489 1001.89 294.303 989 303L992 304L991 307L1001 323L1011 339L1015 345L1025 361L1035 377L1039 383L1049 399L1059 415L1063 421L1073 437L1083 453L1087 459L1097 475L1101 481C1107.52 485.469 1112.49 480.555 1118 476.346C1129.42 467.624 1145.28 456.952 1152 444L1149 443L1150 440L1145 437L1146 434L1139 427L1140 424L1135 421L1136 418L1125 405L1126 402L1121 399L1122 396L1115 389L1116 386L1111 383L1112 380L1101 367L1102 364L1097 361L1098 358L1087 345L1088 342L1077 329L1078 326L1073 323L1074 320L1063 307L1064 304L1059 301L1060 298L1053 291L1054 288L1049 285L1050 282L1042 270C1030.1 271.037 1020.28 274.481 1012 263C1016.18 261.024 1019.76 257.806 1024 256.02C1027.7 254.461 1031.2 256.266 1035 255.771C1040.56 255.047 1048.01 246.085 1038.98 244.408C1025.65 241.934 1012.04 258.778 1001.11 242.96C990.365 227.413 1009.39 208.928 1025 207.189C1030.37 206.591 1035.14 209.115 1040 211L1035 204L1036 201L1031 198L1032 195L1027 192L1028 189L1021 182L1022 179L1017 176L1018 173L1011 166L1012 163L1007 160L1008 157L1003 154L1004 151L997 144L998 141L993 138L994 135L987 128L988 125L983 122L984 119L979 116L980 113L973 106L974 103L969 100L970 97L959 84L960 81L955 78L956 75L949 68L950 65L945 62L946 59L935 46L936 43L931 40L932 37L925 30L926 27L924 24L902 27.1265L851 46z"/>
<path style="fill:#fc8f52; stroke:none;" d="M1043 34L1043 35L1048 38L1047 41L1052 44L1051 47L1056 50L1055 53L1058 54L1057 57L1062 60L1061 63L1066 66L1065 69L1068 70L1067 73L1072 76L1071 79L1076 82L1075 85L1080 88L1079 91L1082 92L1081 95L1086 98L1085 101L1090 104L1089 107L1093 113L1096 114L1095 117L1100 120L1099 123L1104 126L1103 129L1106 130L1105 133L1110 136L1109 139L1114 142L1113 145L1117 151L1120 152L1119 155L1124 158L1123 161L1128 164L1127 167L1130 168L1129 171L1134 174L1133 177L1138 180L1137 183L1141 189L1144 190L1143 193L1148 196L1147 199L1152 202L1151 205L1154 206L1153 209L1158 212L1157 215L1162 218L1161 221L1166 224L1165 227L1168 228L1167 231L1172 234L1171 237L1176 240L1175 243L1178 244L1177 247L1182 250L1181 253L1186 256L1185 259L1190 262L1189 265L1192 266L1191 269L1196 272L1195 275L1200 278L1199 281L1203 287L1206 288L1205 291L1210 294L1209 297L1214 300L1214 304C1218.95 300.5 1217.99 287.751 1218 282C1218.03 260.795 1217.83 239.736 1212.87 219C1197.19 153.466 1158.37 95.4774 1101 59.3187C1088.51 51.4496 1075.55 44.9488 1062 39.1505C1056.33 36.7249 1049.19 32.79 1043 34z"/>
<path style="fill:#e78472; stroke:none;" d="M790 83L807 101L812 106L809 108L817 117L821 123L827 133L831 139L836 144L833 146L841 155L845 161L851 171L855 177L860 182L857 184L864 186L865 193L869 199L875 209L879 215L884 220L881 222L888 224L889 231L893 237L898 242L895 244L903 253L907 259L913 269L917 275C930.324 278.947 943.385 281.429 948 297L912 319C916.701 325.308 925.606 327.387 931.347 320.66C933.658 317.952 933.74 314.13 936.314 311.609C940.329 307.675 946.227 304.932 951 302C953.747 313.537 955.621 328.551 968 335L967 338L978 351L977 354L992 373L991 376L1002 389L1001 392L1016 411L1015 414L1026 427L1025 430L1030 433L1029 436L1040 449L1039 452L1050 465L1049 468L1054 471L1053 474L1064 487L1063 490L1073.34 502.802L1083 499.575L1106 485L1101 481L1097 475C1096.62 469.317 1091.85 461.96 1087 459L1083 453C1082.62 447.317 1077.85 439.96 1073 437C1072.62 431.317 1067.85 423.96 1063 421L1059 415C1058.62 409.317 1053.85 401.96 1049 399C1048.62 393.317 1043.85 385.96 1039 383L1035 377C1034.62 371.317 1029.85 363.96 1025 361C1024.62 355.317 1019.85 347.96 1015 345L1011 339C1010.62 333.317 1005.85 325.96 1001 323C1000.62 317.317 995.85 309.96 991 307L992 304C984.219 302.911 964.955 311.344 961.207 298.947C960.22 295.684 964.837 293.548 967 292.191C971.536 289.345 994.206 290.959 989.381 280.317C987.829 276.894 982.73 278.264 980 279.04C972.604 281.142 963.783 286.08 956 283.107C945.26 279.003 941.725 266.089 947.85 257C954.842 246.626 965.789 241.008 978 241L978 240L975 239L976 236L971 233L972 230L969 229L965 223L966 220L961 217L962 214L957 211L958 208L955 207L956 204L951 201L952 198L947 195L948 192L943 189L944 186L941 185L942 182L937 179L938 176L933 173L934 170L931 169L927 163L928 160L923 157L924 154L919 151L920 148L917 147L918 144L913 141L914 138L909 135L910 132L907 131L903 125L904 122L899 119L900 116L895 113L896 110L893 109L894 106L889 103L890 100L885 97L886 94L883 93L879 87L880 84L875 81L876 78L871 75L872 72L869 71L870 68L865 65L866 62L861 59L862 56L850 47.9938L833 56L790 83z"/>
<path style="fill:#e0807d; stroke:none;" d="M735 118C737.731 123.852 741.946 126.362 748 128L760.887 150.579L788.887 194.579L861.826 310.141L877.816 321.093L902 358L889 365L889 366C908.752 374.978 918.869 400.32 929.985 418.275C945.914 444.003 962.019 469.788 978.537 495.131C989.045 511.254 1001.75 527.624 1010 545C1031.2 535.089 1057.36 519.379 1075 504L1063 490L1064 487L1053 474L1054 471L1049 468L1050 465L1039 452L1040 449L1029 436L1030 433L1025 430L1026 427L1015 414L1016 411L1001 392L1002 389L991 376L992 373L977 354L978 351L967 338L968 335L952 316L951 316C950.166 321.541 947.758 325.898 943.907 329.985C937.558 336.723 926.644 343.001 917 341.695C897.458 339.049 880.305 313.263 890.529 295C893.143 290.33 896.774 286.475 901.004 283.239C906.062 279.37 911.71 276.929 918 276L913 269C912.706 264.581 910.794 261.315 907 259L903 253C902.576 248.162 899.23 245.913 895 244L898 242L893 237L889 231L888 224L881 222L884 220L879 215L875 209C874.706 204.581 872.794 201.316 869 199L865 193L864 186L857 184L860 182L855 177L851 171C850.706 166.581 848.794 163.315 845 161L841 155C840.576 150.162 837.23 147.913 833 146L836 144L831 139L827 133C826.706 128.581 824.794 125.315 821 123L817 117C816.576 112.162 813.23 109.913 809 108L812 106L807 101C806.499 95.8191 793.388 84.486 788 85.1605C782.768 85.8156 776.406 91.6662 772 94.4244C759.625 102.171 747.105 109.84 735 118z"/>
<path style="fill:#da7d86; stroke:none;" d="M665 162L672 167L680.924 182.424L703.986 218.884L781 342L788 338L795 350L807 344L815 358C812.131 359.238 807.422 360.909 806.306 364.185C804.683 368.948 816.487 385.917 821.043 387.342C824.984 388.574 829.053 385.133 832 383L840 398L821 406L821 407L833.001 423.373L856.504 460.626L938 590L960 577.192L1010 546C1009.13 540.335 1005.07 536.206 1002.15 531.435C995.561 520.695 989.039 509.961 982.113 499.421C961.274 467.708 942.572 434.526 921.261 403.13C912.91 390.828 903.487 363.786 885 367C881.381 357.452 872.158 340.815 863.907 334.653C857.482 329.855 847.323 332.876 845.319 341.001C842.945 350.623 853.204 361.523 857.947 369C859.771 371.876 864.572 377.18 862.978 380.815C861.043 385.226 852.876 388.387 849 391L816 337C822.723 334.858 829.335 325.763 835 333L836 333C841.592 321.201 849.248 313.039 863 313C857.771 294.862 840.934 276.113 830.681 260.275C809.878 228.143 788.778 195.641 769.515 162.565C763.171 151.67 751.423 140.117 748 128L733 120.02L714 131.192L665 162z"/>
<path style="fill:#d67a8d; stroke:none;" d="M627 186L636.251 193.858L650.319 215.725L715.485 319.435L738 356C741.285 353.856 744.838 350.427 749 350.427C763.721 350.428 758.864 366.389 750 371L750 372C756.918 376.289 759.54 373.982 766 370L799 424L782 433L782 434C796.78 437.998 804.65 461.031 812.537 473.131C834.408 506.687 854.9 541.117 876.887 574.579C882.803 583.584 888.467 592.685 894.319 601.725C896.33 604.831 897.585 609.444 901.069 611.278C907.382 614.602 924.524 599.603 930 596.192C932.456 594.662 937.133 592.592 937.222 589.196C937.424 581.525 924.727 567.214 920.5 560.873C887.696 511.667 860.08 458.235 825.275 410.443C821.595 405.389 813.111 406.569 808.04 402.471C799.839 395.843 794.459 383.888 789 375C779.472 377.819 778.416 372.047 773 365C783.478 360.233 772.898 356.299 773.87 349.093C774.358 345.481 779.316 344.637 779.843 340.996C780.882 333.827 767.433 318.274 763.5 312.373C742.897 281.464 723.867 249.493 703.986 218.13C693.684 201.877 679.049 184.883 672 167C669.147 166.235 666 163.758 663 164.131C651.811 165.522 636.631 180.084 627 186z"/>
<path style="fill:#d17894; stroke:none;" d="M572 221L590 236L589 239L594 242L593 245L598 248L597 251L602 254L601 257L604 258L603 261L608 264L607 267L612 270L611 273L618 280L617 283L622 286L621 289L626 292L625 295L628 296L627 299L632 302L631 305L636 308L635 311L642 318L641 321L646 324L645 327L650 330L649 333L652 334L651 337L656 340L655 343L660 346L659 349L666 356L665 359L670 362L669 365L674 368L673 371L676 372L675 375L680 378L679 381L684 384L683 387L688 390L687 393L690 394L690 399L733 373L740 386L713 402C720.47 421.708 729.336 411.578 743 404L750 417L730 429L747 457L739 461L739 463C751.351 470.964 758.699 490.334 766.705 502.526C787.252 533.814 805.824 566.476 826.795 597.474C833.815 607.85 840.569 618.626 846.925 629.424C848.831 632.661 852.092 640.343 856.189 641.022C860.423 641.724 865.65 636.885 869 634.808C880.052 627.955 890.917 620.807 902 614C895.081 598.651 883.832 584.41 874.681 570.275C861.665 550.17 848.668 529.864 836.145 509.435C820.654 484.165 805.785 451.953 783.47 433.262C772.598 424.156 764.324 404.099 756.808 392C753.301 386.356 748.924 382.173 755 377C751.573 370.205 743.008 372.792 738.859 365.985C735.908 361.143 739.171 355.712 736.41 350.87C713.64 310.934 687.358 271.841 662.113 233.421C655.066 222.696 648.41 211.796 641.262 201.131C637.328 195.261 634.74 189.898 627 188.247C621.962 187.172 614.984 193.746 611 196.308C598.063 204.625 584.754 212.403 572 221z"/>
<path style="fill:#fbddd3; stroke:none;" d="M1022 207L1022 208L1032 208L1022 207z"/>
<path style="fill:#ffffff; stroke:none;" d="M1012 263C1022.65 285.291 1062.43 264.85 1060.9 244C1059.74 228.12 1042.77 227.386 1031 231.026C1027.55 232.092 1021.74 235.422 1018.15 233.788C1013.25 231.557 1016.88 226.294 1020.04 224.576C1023.83 222.521 1026.72 223.841 1030 226L1031 226L1045 217C1033.36 194.074 991.48 215.272 998.649 239C1003.21 254.093 1018.86 249.893 1030 246.344C1033.4 245.262 1042.75 242.294 1042.65 249.004C1042.52 258.458 1029.62 253.779 1025 255.099C1020.35 256.427 1015.96 260.326 1012 263z"/>
<path style="fill:#cd759b; stroke:none;" d="M523 252L539 273L545 283L549 289L553 295L559 305L563 311L569 321L573 327L577 333L583 343L587 349L597 365L601 371L607 381L611 387L621 403L625 409L631 419L635 425L639 431L645 441L648 444C674.706 436.934 687.999 467.166 699 487C692.899 489.886 684.562 493.936 683 501L687 507L693 517L697 523L707 539L711 545L717 555L721 561L731 577L735 583L741 593L745 599L749 605L755 615L759 621L765 631L769 637L773 643L779 653L783 659L789 669L793 675L797 679C817.422 672.991 837.847 654.15 856 643C841.235 612.689 818.724 584.325 800.709 555.765L762.709 495.765C756.815 486.422 751.825 475.229 744.736 466.771C739.642 460.693 734.014 467.225 729.609 463.549C724.968 459.677 721.93 452.039 718.657 447C711.771 436.399 705.143 425.633 698.308 415C693.87 408.097 689.2 402.521 690 394L687 393L688 390L683 387L684 384L679 381L680 378L675 375L676 372L673 371L674 368L669 365L670 362L665 359L666 356L659 349L660 346L655 343L656 340L651 337L652 334L649 333L650 330L645 327L646 324L641 321L642 318L635 311L636 308L631 305L632 302L627 299L628 296L625 295L626 292L621 289L622 286L617 283L618 280L611 273L612 270L607 267L608 264L603 261L604 258L601 257L602 254L597 251L598 248L593 245L594 242L589 239L590 236L572 222.542L558 229.808L523 252z"/>
<path style="fill:#f5b59d; stroke:none;" d="M1041 228L1041 229L1046 229L1041 228z"/>
<path style="fill:#f6c4b6; stroke:none;" d="M997 230L997 236L998 236L997 230z"/>
<path style="fill:#f5baa7; stroke:none;" d="M1017 234L1017 235L1021 235L1017 234z"/>
<path style="fill:#ffffff; stroke:none;" d="M968 241.529C962.867 242.714 957.981 245.971 954.004 249.326C950.867 251.971 947.833 255.163 946.228 259C937.275 280.408 959.648 285.794 975 280.975C978.611 279.842 987.675 275.424 989.694 281.144C991.033 284.941 985.978 288.216 982.996 289.127C978.005 290.653 960.207 287.514 960.207 298.053C960.207 305.706 975.006 306.506 980 305.674C985.261 304.798 990.583 302.583 995 299.637C998.505 297.3 1001.79 294.532 1004.15 290.999C1018.09 270.084 994.593 259.588 977 265.026C973.684 266.051 964.236 270.638 962.752 264.856C959.506 252.212 992.006 263.03 990.079 248.95C988.987 240.978 973.666 240.222 968 241.529z"/>
<path style="fill:#efae8a; stroke:none;" d="M1216 241L1216 245L1217 245L1216 241z"/>
<path style="fill:#f5c2b4; stroke:none;" d="M991.333 249.667L991.667 250.333L991.333 249.667z"/>
<path style="fill:#c672a5; stroke:none;" d="M464 289C467.279 296.031 479.071 308.39 486 312L485 315L490 318L489 321L500 334L499 337L514 356L513 359L524 372L523 375L538 394L537 397L548 410L547 413L562 432L561 435L572 448L571 451L586 470L585 473L592 483C605.604 483.039 618.08 491.024 623 504L587 526C590.452 532.73 600.02 534.189 605.427 528.467C608.153 525.582 608.076 521.473 611.148 518.76C615.535 514.887 621.134 512.22 626 509L624 531L625 531L626 527L632 529C636.05 545.199 652.417 563.091 661.496 577.13C680.844 607.046 698.734 637.977 718.5 667.627C725.486 678.106 731.802 689.004 738.794 699.475C740.799 702.478 742.858 708.714 746.554 710.012C750.728 711.479 757.683 705.131 761 703.05C773.251 695.367 785.235 686.795 798 680L793 675L789 669C788.706 664.581 786.794 661.316 783 659L779 653C778.706 648.581 776.794 645.316 773 643L769 637L765 631C764.706 626.581 762.794 623.316 759 621L755 615C754.706 610.581 752.794 607.316 749 605L745 599L741 593C740.706 588.581 738.794 585.316 735 583L731 577C730.618 571.317 725.85 563.96 721 561L717 555C716.706 550.581 714.794 547.316 711 545L707 539C706.618 533.317 701.85 525.96 697 523L693 517C692.706 512.581 690.794 509.316 687 507L683 501C683.866 496.533 681.384 493.686 679.053 490C674.22 482.357 667.784 466.193 658.985 462.742C646.407 457.809 639.253 470.651 644.377 481C646.454 485.195 649.341 489.029 651.808 493C655.375 498.741 658.901 504.627 663 510L646 520C639.071 501.72 623.94 483.23 613 467L630 457L634 463C635.247 455.011 640.936 448.665 648 445L648 442L645 441C644.706 436.581 642.794 433.315 639 431L635 425L631 419C630.706 414.581 628.794 411.316 625 409L621 403C620.618 397.317 615.85 389.96 611 387L607 381C606.706 376.581 604.794 373.316 601 371L597 365C596.618 359.317 591.85 351.96 587 349L583 343C582.706 338.581 580.794 335.316 577 333L573 327L569 321C568.706 316.581 566.794 313.315 563 311L559 305C558.706 300.581 556.794 297.316 553 295L549 289L545 283C544.706 278.581 542.794 275.316 539 273C538.486 267.685 525.951 252.664 520 254.234C514.209 255.761 508.076 261.415 503 264.576C490.016 272.664 477.376 281.581 464 289z"/>
<path style="fill:#f8d1c8; stroke:none;" d="M987 262L987 263L993 263L987 262z"/>
<path style="fill:#f4c5bc; stroke:none;" d="M944 263L944 270L945 270L944 263z"/>
<path style="fill:#e3c1af; stroke:none;" d="M1218 263L1218 283L1219 283L1218 263z"/>
<path style="fill:#ffffff; stroke:none;" d="M951 302C945.962 304.174 939.27 307.445 935.588 311.609C927.859 320.347 924.454 330.772 912 319L948 297C944.796 279.3 923.208 272.057 908 278.464C892.598 284.953 884.962 299.872 888.9 316C898.908 356.993 962.731 341.686 951 302z"/>
<path style="fill:#f2b4a5; stroke:none;" d="M990 280L990 284L991 284L990 280z"/>
<path style="fill:#f5c4b7; stroke:none;" d="M1007.33 282.667L1007.67 283.333L1007.33 282.667z"/>
<path style="fill:#f3c1b7; stroke:none;" d="M973.667 287.333L974.333 287.667L973.667 287.333z"/>
<path style="fill:#bf6eb0; stroke:none;" d="M355 358L372.736 376.489L401.29 421.235L458.794 512.475L483 550C487.307 546.726 492.398 543.507 498 543.278C501.007 543.155 504.701 545.423 507.57 544.303C510.565 543.134 511.091 537.537 512.533 535C515.178 530.346 519.355 526.187 524 523.532C550.215 508.551 565.326 548.943 577 565C572.879 566.778 564.628 574.553 560.21 572.172C547.156 565.138 545.883 531.95 525 542C527.327 546.989 531.73 550.122 534.864 554.575C542.614 565.583 549.827 577.1 556.855 588.565C581.418 628.634 606.77 668.26 632.319 707.725C640.608 720.528 648.876 733.548 656.855 746.565C659.226 750.433 662.222 759.333 667.069 760.569C672.701 762.005 683.412 752.21 688 749.319C707.683 736.913 727.176 724.177 747 712L662.465 577.884L632 529L626 527C623.802 531.878 619.995 536.269 615.996 539.815C583.55 568.586 541.312 515.962 576.004 490.289C580.88 486.681 586.117 484.362 592 483L585 473L586 470L571 451L572 448L561 435L562 432L547 413L548 410L537 397L538 394L523 375L524 372L513 359L514 356L499 337L500 334L489 321L490 318L485 315L486 312C479.511 306.972 471.78 291.823 463 291.113C455.278 290.49 440.541 304.136 434 308.192C407.633 324.541 382.1 342.912 355 358z"/>
<path style="fill:#edad8c; stroke:none;" d="M1217 290L1217 298L1218 298L1217 290z"/>
<path style="fill:#f2c1bc; stroke:none;" d="M915 292L915 293L920 293L915 292z"/>
<path style="fill:#e38278; stroke:none;" d="M906 310L926 298C918.823 284.324 903.862 298.44 906 310z"/>
<path style="fill:#f4cdcb; stroke:none;" d="M887 302L887 310L888 310L887 302z"/>
<path style="fill:#ffffff; stroke:none;" d="M837 334C828.667 326.185 824.946 332.768 816 337C821.973 355.869 838.643 374.138 849 391C851.806 389.673 854.366 388.071 857 386.424C875.906 374.597 842.709 358.451 844.785 343C845.891 334.769 856.34 329.879 862.96 334.653C872.188 341.307 879.517 357.152 885 367L902 358C897.202 345.342 884.099 322.443 872 315.916C857.67 308.186 837.88 317.035 837 334z"/>
<path style="fill:#eebebc; stroke:none;" d="M865.667 313.333L866.333 313.667L865.667 313.333z"/>
<path style="fill:#eebfc1; stroke:none;" d="M836 332L835 334L837 334L836 332z"/>
<path style="fill:#ffffff; stroke:none;" d="M773 365C777.32 372.76 779.764 379.065 789 375C793.625 385.718 804.349 407.081 818 406.867C826.436 406.734 832.767 401.421 840 398L832 383C829.209 384.484 825.356 387.721 822.015 387.122C817.197 386.257 806.21 369.962 806.87 365.093C807.34 361.63 812.386 359.608 815 358L807 344L795 350L788 338C784.033 339.854 773.56 344.08 773.113 349.093C772.44 356.649 782.159 358.914 773 365z"/>
<path style="fill:#f2c7c4; stroke:none;" d="M915 341L915 342L924 342L915 341z"/>
<path style="fill:#f2d0d2; stroke:none;" d="M844 342L844 346L845 346L844 342z"/>
<path style="fill:#ffffff; stroke:none;" d="M746 350.657C732.793 354.625 736.484 375.399 750 371.343C763.25 367.367 760.192 346.392 746 350.657z"/>
<path style="fill:#e5abb7; stroke:none;" d="M759 358L759 362L760 362L759 358z"/>
<path style="fill:#b569bf; stroke:none;" d="M303 391C309.203 406.835 319.534 420.698 328.655 435C341.383 454.958 353.923 475.035 366.655 495C384.795 523.445 400.415 556.959 422.019 582.851C426.281 587.96 432.399 583.61 438 584.479C449.974 586.336 459.243 593.978 464 605L428 627C431.282 633.653 441.236 635.471 446.566 629.656C448.991 627.01 448.752 623.15 451.317 620.609C455.664 616.303 462.049 613.599 467 610C468.897 620.216 466.376 626.566 463 636L473.963 651.271L493.985 683.275L503 699C509.799 705.116 513.594 714.547 518.537 722.131C532.594 743.698 545.81 765.781 559.963 787.271C564.559 794.249 568.846 801.41 573.421 808.421C574.891 810.673 577.119 815.726 580.168 816.018C586.897 816.662 598.436 805.889 604 802.424C624.656 789.557 645.018 773.399 667 763C659.545 745.482 646.088 729.654 636.145 713.435C611.403 673.074 584.889 633.8 560.145 593.435C552.129 580.359 544.181 567.3 535.57 554.575C533.509 551.529 527.659 542.995 523.228 544.346C518.766 545.706 519.807 553.839 520.994 557C524.032 565.094 530.31 572.776 535 580C536.605 582.473 539.865 586.071 537.468 588.96C514.903 616.161 511.777 547.843 488.094 565.653C475.71 574.966 491.417 592.112 497.053 601C498.662 603.537 502.5 607.532 501.553 610.815C500.266 615.276 490.896 619.157 487 621L454 568C463.13 564.061 465.913 558.42 475 564C475.555 558.616 481.889 553.32 481.123 548.439C479.144 535.812 463.511 519.549 456.709 508.765C435.952 475.858 414.196 443.353 394.245 409.989C385.954 396.123 377.857 380.769 365.996 369.896C362.815 366.979 359.28 361.582 355 360.306C350.478 358.957 343.551 365.35 340 367.657C327.774 375.598 315.157 382.955 303 391z"/>
<path style="fill:#ffffff; stroke:none;" d="M782 433L799 424L766 370C761.933 371.71 751.756 376.278 750.881 381.093C750.078 385.519 756.418 392.463 758.692 396C766.544 408.214 774.957 420.301 782 433M689 399C693.067 416.315 710.428 434.992 719.947 450C722.304 453.717 726.541 464.173 731.21 465.122C735.974 466.09 743.043 459.203 747 457L730 429L750 417L743 404L722.21 414.553L713 402L740 386L733 373C717.42 376.573 703.079 391.505 689 399z"/>
<path style="fill:#b065c8; stroke:none;" d="M246 427L260 437C263.705 451.822 277.881 467 285.986 479.884C303.846 508.275 322.037 536.502 339.535 565.116C346.161 575.95 360.345 590.364 362 603L373 596L417 667L405 674C406.969 678.172 409.404 680.29 414 681C415.439 686.756 419.976 691.346 422.924 696.424C430.143 708.86 438.329 720.712 445.986 732.884C462.084 758.474 478.804 783.789 494.465 809.651C502.778 823.38 511.271 843.093 523 854C539.964 841.056 560.718 827.122 580 818C564.005 788.748 544.421 760.284 526.113 732.421C519.764 722.758 512.893 705.038 503 699C502.577 692.692 497.355 687.672 494.145 682.435C487.577 671.721 481.015 660.925 474.113 650.421C472.179 647.477 467.745 636.578 463.808 636.632C459.448 636.692 455.469 642.665 452 644.867C442.961 650.603 431.427 651.925 422 646.471C396.717 631.844 398.36 598.497 425 587L333.345 442L310.674 406L302.853 393.302L288 400.424L246 427z"/>
<path style="fill:#ac64cd; stroke:none;" d="M211 449C216.941 461.761 227.821 473.835 235.29 486C255.305 518.597 276.085 550.745 296.655 583C304.912 595.947 313.253 608.91 321.29 622C324.775 627.676 328.082 636.236 333.456 640.381C337.215 643.281 342.847 639.413 347 639.094C354.222 638.54 361.521 641.761 366.996 646.329C383.063 659.733 387.991 683.168 370 697C386.005 714.607 397.482 738.081 409.985 758.275C434.618 798.063 459.971 837.469 485 877L522 854L497.535 814.349L434.465 713.884L414 681L400 676C391.666 653.238 372.36 633.053 360.343 612C356.872 605.921 363.604 602.665 360.445 596.888C338.429 556.626 310.416 519.05 286.465 479.884C277.935 465.936 266.007 452.246 260 437L246 428.593L235 433.95L211 449z"/>
<path style="fill:#ffffff; stroke:none;" d="M634 463L630 457L613 467L646 520L663 510C657.257 499.645 642.455 485.179 642.294 473C642.181 464.457 653.191 458.78 659.96 463.653C670.008 470.886 676.158 486.849 683 497L699 487C693.947 473.65 680.84 451.068 668 444.328C654.13 437.048 635.391 447.559 634 463z"/>
<path style="fill:#a660d7; stroke:none;" d="M159 482L168 490L167 493L172 496L171 499L178 506L177 509L182 512L181 515L188 522L187 525L192 528L191 531L196 534L195 537L202 544L201 547L206 550L205 553L212 560L211 563L216 566L215 569L220 572L219 575L226 582L225 585L230 588L229 591L236 598L235 601L240 604L239 607L244 610L243 613L250 620L249 623L254 626L253 629L260 636L259 639L264 642L263 645L268 648L267 651L274 658L273 661L278 664L277 667L282 670L281 673L284 676C293.803 673.099 295.372 679.346 300.343 687C308.675 699.826 317.562 712.641 325 726L308 735L305 729L297 745C302.512 745.47 303.768 749.397 306.504 753.626C312.191 762.414 318.132 771.137 323.37 780.207C343.608 815.254 366.32 849.818 388.794 883.475C394.941 892.68 400.489 902.33 406.504 911.626C408.284 914.377 410.458 920.487 414.189 920.878C420.049 921.492 429.218 912.779 434 909.808C450.945 899.281 467.386 887.377 485 878C480.835 862.197 466.618 847.256 458.145 833.435C439.607 803.195 421.187 772.484 401.261 743.13C394.195 732.721 388.3 721.537 381.261 711.13C378.852 707.569 376.481 701.992 372.832 699.579C368.454 696.686 355.313 701.798 349 701L369 733L352 743C341.719 714.92 317.521 690.181 303 664L320 655L323 661L324 661C324.82 652.997 329.819 647.713 336 643L310.655 604L244 499L222 464L210.999 451.306L196 458.657L159 482z"/>
<path style="fill:#dca6c2; stroke:none;" d="M651 461L651 462L657 462L651 461z"/>
<path style="fill:#a05de0; stroke:none;" d="M106 520C114.603 526.06 126.863 536 129 547L133 553L139 563L143 569L153 585L157 591L163 601L167 607L177 623L181 629L191 645L195 651L201 661L205 667L215 683L219 689L225 699L229 705L239 721L243 727L249 737L253 743L263 759L267 765L273 775L277 781L287 797L291 803L301 819L305 825L311 835L315 841L325 857L329 863L335 873L339 879L349 895L353 901L359 911L363 917L373 933C375.028 934.824 377.386 939.686 380.169 940.046C388.994 941.185 407.242 927.153 414 922C400.686 905.372 390.776 885.412 379.291 867.475C362.807 841.728 346.312 815.991 330.014 790.116C321.304 776.287 313.549 759.012 302.737 746.792C296.698 739.967 282.877 752.581 274 749.451C258.659 744.041 245.157 719.269 239 705L255 696C259.616 705.757 268.146 722.698 277.174 728.852C284.848 734.083 295.621 728.129 295.862 719C296.161 707.662 281.096 691.213 275 682C279.233 680.394 282.627 678.463 284 674L281 673L282 670L277 667L278 664L273 661L274 658L267 651L268 648L263 645L264 642L259 639L260 636L253 629L254 626L249 623L250 620L243 613L244 610L239 607L240 604L235 601L236 598L229 591L230 588L225 585L226 582L219 575L220 572L215 569L216 566L211 563L212 560L205 553L206 550L201 547L202 544L195 537L196 534L191 531L192 528L187 525L188 522L181 515L182 512L177 509L178 506L171 499L172 496L167 493L168 490C164.92 487.977 160.925 483.639 157 484.016C152.391 484.459 146.838 489.618 143 492.053C130.619 499.91 115.292 508.512 106 520z"/>
<path style="fill:#ffffff; stroke:none;" d="M626 509C620.925 511.372 614.352 514.512 610.588 518.76C603.865 526.347 597.533 539.596 587 526L623 504C614.192 466.517 553.672 485.52 562.761 521C565.944 533.425 574.982 545.482 588 548.471C610.856 553.717 631.209 530.88 626 509z"/>
<path style="fill:#c270ab; stroke:none;" d="M581 517L601 505C593.293 492.502 577.407 504.819 581 517z"/>
<path style="fill:#9f5de1; stroke:none;" d="M93 575L98 580L95 582L102 584L99 588L106 592L106 593L109 604L117 613L122 618L119 620L126 622L123 626L131 635L136 640L133 642L141 651L146 656L143 658L150 660L147 664L155 673L160 678L157 680L164 682L165 689L170 694L167 696L174 698L171 702L179 711L184 716L181 718C187.408 720.654 191.586 715.303 197 712.312C206.629 706.993 219.398 704.763 227.713 714.145C231.96 718.938 224.444 721.762 221 724.002C216.16 727.151 191.696 724.295 199.029 736.852C201.167 740.514 206.331 740.237 210 739.896C219.406 739.022 228.259 733.823 238 736.638C252.835 740.926 257.108 757.893 249.441 769.999C243.381 779.568 232.755 784.774 222 787L222 788L233 800L241 809L246 814L243 816L251 825L256 830L253 832L260 834L257 838L265 847L270 852L267 854L274 856L275 863L280 868L277 870L284 872L281 876L289 885L294 890L291 892L298 894L299 901L308 912L305 914L313 923L318 928L315 930L322 932L319 936L326 940L326 941L329 952C341.742 960.028 366.803 947.941 379 941L373 933C372.619 927.317 367.85 919.96 363 917L359 911C358.706 906.581 356.794 903.316 353 901L349 895C348.619 889.317 343.85 881.96 339 879L335 873C334.706 868.581 332.794 865.316 329 863L325 857C324.619 851.317 319.85 843.96 315 841L311 835C310.706 830.581 308.794 827.316 305 825L301 819C300.619 813.317 295.85 805.96 291 803L287 797C286.619 791.317 281.85 783.96 277 781L273 775C272.706 770.581 270.794 767.316 267 765L263 759C262.619 753.317 257.85 745.96 253 743L249 737C248.706 732.581 246.794 729.316 243 727L239 721C238.619 715.317 233.85 707.96 229 705L225 699C224.706 694.581 222.794 691.316 219 689L215 683C214.619 677.317 209.85 669.96 205 667L201 661C200.706 656.581 198.794 653.316 195 651L191 645C190.619 639.317 185.85 631.96 181 629L177 623C176.619 617.317 171.85 609.96 167 607L163 601C162.706 596.581 160.794 593.316 157 591L153 585C152.619 579.317 147.85 571.96 143 569L139 563C138.706 558.581 136.794 555.316 133 553L129 547C128.4 538.066 119.967 531.676 114 525.989C111.93 524.016 109.241 520.539 106 520.921C102.467 521.338 99.3332 525.672 97 528C90.8594 534.128 77.1398 544.061 75.3063 553C73.4886 561.862 91.3799 566.988 93 575z"/>
<path style="fill:#ecd5e8; stroke:none;" d="M531 520L531 521L539 521L531 520z"/>
<path style="fill:#e2b9d5; stroke:none;" d="M608 520L608 524L609 524L608 520z"/>
<path style="fill:#ffffff; stroke:none;" d="M510 546C495.751 541.483 475.934 546.035 475 564C467.137 556.823 461.955 563.114 454 568L487 621C491.147 619.679 501.096 615.555 502.172 610.815C503.62 604.438 491.433 591.36 488.204 586C483.38 577.995 480.776 568.295 492.001 564.024C503.887 559.501 512.628 580.302 517.424 588C519.239 590.913 521.792 597.304 526.043 596.607C535.392 595.075 540.713 587.874 535.656 580C529.248 570.023 510.383 550.354 527.004 541.573C544.379 532.393 549.085 567.756 560.21 572.864C564.913 575.024 573.159 567.36 577 565C570.254 552.329 560.419 531.703 548 523.995C531.139 513.53 510.156 527.419 510 546z"/>
<path style="fill:#ddb7dc; stroke:none;" d="M495 543L495 544L502 544L495 543z"/>
<path style="fill:#d6a6d3; stroke:none;" d="M509 543L508 546L509 543z"/>
<path style="fill:#e0bcdd; stroke:none;" d="M519 549L519 554L520 554L519 549z"/>
<path style="fill:#9959eb; stroke:none;" d="M38 618C45.1052 619.464 51.6468 629.036 53 636C64.6812 646.508 73.5826 665.866 81.4846 679.435C84.6155 684.811 89.7904 689.775 91 696C99.0893 703.277 112.921 723.303 115 734C123.089 741.277 136.921 761.303 139 772C147.089 779.277 160.921 799.303 163 810C174.681 820.508 183.583 839.866 191.485 853.435C194.615 858.811 199.79 863.775 201 870C209.089 877.277 222.921 897.303 225 908C233.089 915.277 246.921 935.303 249 946C253.934 950.438 256 958.888 262.022 961.976C266.834 964.444 274.724 963 280 963C297.109 963 317.963 962.337 334 956L334 954L329 952L326 941L326 940L319 936L322 932L315 930L318 928L313 923C312.576 918.162 309.23 915.913 305 914L308 912L299 901L298 894L291 892L294 890L289 885C288.576 880.162 285.23 877.913 281 876L284 872L277 870L280 868L275 863L274 856L267 854L270 852L265 847C264.576 842.162 261.23 839.913 257 838L260 834L253 832L256 830L251 825C250.576 820.162 247.23 817.913 243 816L246 814L241 809C240.576 804.162 237.23 801.913 233 800C230.331 784.368 207.15 789.498 200 776C205.161 774.111 210.398 768.327 215.715 767.645C220.553 767.025 223.634 771.361 228.985 768.682C233.876 766.233 237.093 759.529 231.852 755.603C226.769 751.796 218.395 754.845 213 756.265C199.409 759.843 187.087 759.769 180.353 745C178.837 741.676 177.705 737.661 178.405 734C179.379 728.912 183.051 724.701 185 720L181 718L184 716L179 711C178.576 706.162 175.23 703.913 171 702L174 698L167 696L170 694L165 689L164 682L157 680L160 678L155 673C154.576 668.162 151.23 665.913 147 664L150 660L143 658L146 656L141 651C140.576 646.162 137.23 643.913 133 642L136 640L131 635C130.576 630.162 127.23 627.913 123 626L126 622L119 620L122 618L117 613C116.576 608.162 113.23 605.913 109 604L106 593L106 592L99 588L102 584L95 582L98 580L93 575C92.4896 569.727 76.5842 553.242 71.4645 557.377C66.8433 561.109 63.5612 568.072 60.3441 573C51.4367 586.645 42.3251 602.187 38 618z"/>
<path style="fill:#dcb8e2; stroke:none;" d="M432 584L432 585L439 585L432 584z"/>
<path style="fill:#ffffff; stroke:none;" d="M467 610C461.975 612.675 455.523 615.722 451.588 619.901C444.484 627.445 438.762 641.484 428 627L464 605C453.401 568.98 394.85 586.731 403.76 622C406.819 634.11 415.371 646.139 428 649.39C451.465 655.432 472.356 632.495 467 610M400 676L417 667L403.424 644L373 596C369.118 597.836 358.658 602.359 358.022 607.104C357.292 612.552 365.803 621.572 368.576 626C378.964 642.593 390.801 658.719 400 676z"/>
<path style="fill:#b267c4; stroke:none;" d="M422 618L442 606C433.026 594.963 418.301 605.459 422 618z"/>
<path style="fill:#9155f7; stroke:none;" d="M37 618C33.4114 633.512 27.4127 648.201 24.615 664C18.9666 695.897 19.6127 729.164 25.6188 761C46.1625 869.894 149.524 962.926 262 963L249 946C248.696 941.469 246.014 938.31 243.579 934.579C238.312 926.507 233.327 913.082 225 908C224.696 903.469 222.014 900.31 219.579 896.579C214.312 888.507 209.327 875.082 201 870C200.577 863.692 195.355 858.672 192.145 853.435C184.71 841.306 175.185 817.437 163 810C162.696 805.469 160.014 802.31 157.579 798.579C152.312 790.507 147.327 777.082 139 772C138.696 767.469 136.014 764.31 133.579 760.579C128.312 752.507 123.327 739.082 115 734C114.696 729.469 112.014 726.31 109.579 722.579C104.312 714.507 99.3272 701.082 91 696C90.5766 689.692 85.3552 684.672 82.1451 679.435C74.7097 667.306 65.1846 643.437 53 636C52.4698 628.101 45.0856 618.446 37 618z"/>
<path style="fill:#dbb6e2; stroke:none;" d="M449 621L449 625L450 625L449 621z"/>
<path style="fill:#d1a5dc; stroke:none;" d="M435 633L435 634L440 634L435 633z"/>
<path style="fill:#ffffff; stroke:none;" d="M324 661L323 661L320 655L303 664C310.758 684.499 327.708 704.605 339.657 723C342.553 727.458 347.542 739.951 353.104 741.172C357.844 742.213 365.145 735.368 369 733L348 700C353.62 701.338 360.55 701.923 366 699.637C371.179 697.463 375.484 693.926 378.201 688.999C388.545 670.236 375.228 644.793 355 639.61C340.945 636.008 324.769 646.173 324 661z"/>
<path style="fill:#a962d2; stroke:none;" d="M343 658.657C324.859 664.13 335.198 693.378 352 688.195C370.072 682.621 359.876 653.565 343 658.657z"/>
<path style="fill:#ffffff; stroke:none;" d="M275 682C280.109 692.93 294.697 705.912 295.681 718C296.392 726.722 285.399 733.638 278.09 728.852C268.006 722.248 261.647 705.853 255 696L239 705C245.052 725.567 272.566 766.513 296.815 743.671C301.14 739.598 302.425 734.102 305 729L308 735C312.264 733.65 322.061 729.726 323.172 724.816C323.925 721.486 320.426 717.611 318.808 715C314.23 707.611 309.395 700.383 304.808 693C302.034 688.535 296.314 674.967 290.816 673.878C286.008 672.926 278.991 679.778 275 682z"/>
<path style="fill:#d4b1e9; stroke:none;" d="M348.667 700.333L349.333 700.667L348.667 700.333z"/>
<path style="fill:#c1ade3; stroke:none;" d="M20 701L20 717L21 717L20 701z"/>
<path style="fill:#e7d3f3; stroke:none;" d="M352 701L352 702L362 702L352 701z"/>
<path style="fill:#c69fee; stroke:none;" d="M209 707L209 708L215 708L209 707z"/>
<path style="fill:#ffffff; stroke:none;" d="M200 776C208.239 799.733 247.094 782.727 252.211 765C253.217 761.514 253.163 757.598 252.957 754C251.882 735.24 230.895 734.183 217 737.92C210.987 739.537 202.832 743.06 198.801 735.956C196.41 731.742 201.022 726.955 205 725.85C208.248 724.948 210.849 727.445 214 727.502C217.758 727.568 229.719 721.202 229.654 716.911C229.552 710.147 217.9 708.135 213 708.015C199.807 707.691 183.523 716.542 179.638 730C178.661 733.384 178.763 737.515 179.105 741C179.429 744.294 180.718 747.313 182.638 749.999C196.598 769.53 212.6 748.467 228.995 754.603C238.687 758.231 232.27 769.875 224 769.583C221.14 769.483 218.846 767.184 216 767.262C210.833 767.402 204.525 773.591 200 776z"/>
<path style="fill:#d0acea; stroke:none;" d="M324.333 724.667L324.667 725.333L324.333 724.667z"/>
<path style="fill:#c198ee; stroke:none;" d="M204 725L204 726L209 726L204 725z"/>
<path style="fill:#cfaef2; stroke:none;" d="M213.667 728.333L214.333 728.667L213.667 728.333z"/>
<path style="fill:#cfaff3; stroke:none;" d="M197 731L197 735L198 735L197 731z"/>
<path style="fill:#e6d5f9; stroke:none;" d="M178 732L178 740L179 740L178 732z"/>
<path style="fill:#d2b2f1; stroke:none;" d="M237.667 736.333L238.333 736.667L237.667 736.333z"/>
<path style="fill:#d5baf5; stroke:none;" d="M203 740L203 741L207 741L203 740z"/>
<path style="fill:#d5b3eb; stroke:none;" d="M352.667 742.333L353.333 742.667L352.667 742.333z"/>
<path style="fill:#c9a2ec; stroke:none;" d="M277 750L277 751L282 751L277 750z"/>
<path style="fill:#d5b8f2; stroke:none;" d="M253 753L253 761L254 761L253 753z"/>
<path style="fill:#c49ef1; stroke:none;" d="M215 787L215 788L222 788L215 787z"/>
<path style="fill:#ba9be0; stroke:none;" d="M311 960L311 961L316 961L311 960z"/>
<path style="fill:#bb9de1; stroke:none;" d="M303 961L303 962L307 962L303 961z"/>
<path style="fill:#b38ee7; stroke:none;" d="M246 962L246 963L253 963L246 962z"/>
<path style="fill:#bb9de1; stroke:none;" d="M295 962L295 963L299 963L295 962z"/>
<path style="fill:#aa7ce9; stroke:none;" d="M259 963L259 964L280 964L259 963z"/>
<path style="fill:#c2abe4; stroke:none;" d="M244 975L244 976L254 976L244 975z"/>
<path style="fill:#c2aae0; stroke:none;" d="M294 975L294 976L305 976L294 975z"/>
<path style="fill:#c4ace4; stroke:none;" d="M258 976L258 977L294 977C284.44 972.989 268.387 976 258 976z"/>
</svg>
